<?xml version="1.0" encoding="utf-8"?>
<!-- Generator: Adobe Illustrator 19.0.0, SVG Export Plug-In . SVG Version: 6.00 Build 0)  -->
<svg version="1.1" id="Ebene_1" xmlns="http://www.w3.org/2000/svg" xmlns:xlink="http://www.w3.org/1999/xlink" x="0px" y="0px"
	 viewBox="0 0 148.5 144" style="enable-background:new 0 0 148.5 144;" xml:space="preserve">
<style type="text/css">
	.st0{fill:#FFFFFF;}
	.st1{fill:#FFFFFF;stroke:#000000;stroke-width:3;stroke-miterlimit:10;}
</style>
<path id="XMLID_3_" class="st0" d="M126,75.7c-0.2-1.6-0.6-3.9-1.8-6.3c-2.3-4.5-7-8.6-8.8-7.7c-1.7,0.9,0.6,5.3,0.5,14.9
	c0,7.7-1.5,11.7,0,12.4c0.9,0.4,2.9-0.4,7.5-6"/>
<path id="XMLID_1_" class="st0" d="M20.6,74.5c-0.3,1.3-0.5,3.5,0.4,5.9c1.6,4.1,6.2,7.7,8.3,7c1.8-0.6,0.5-3.9,0.9-13.6
	c0.3-6.9,1.2-10-0.4-10.7c-0.8-0.3-2.6-0.1-7,4.1"/>
<path id="XMLID_16_" class="st1" d="M51.2,106.9c-9.7,0-13.9-0.7-17.3-4.8c-3.1-3.7-3.3-11.2-3.7-24.9c-0.4-15.2-0.6-22.9,2.7-27
	l0,0C37.2,45,42.8,45,70.2,45l4.5,0c28.1,0,34,0,38.3,5.6c2,2.6,2,4.1,2.6,22.3l0.2,5c0.6,19.9,0.7,21.6-1.4,24.3
	c-3.8,5-9.1,4.9-24.9,4.7c-4.3-0.1-9.1-0.1-14.9-0.1c-5.8,0-10.6,0.1-14.8,0.2C56.4,106.9,53.7,106.9,51.2,106.9z"/>
<g id="XMLID_26_">
	<path id="XMLID_28_" d="M81.2,12.5l-4.2,0c-4.7,0-7.8,3.1-7.8,8v3.7h-4.2c-0.4,0-0.7,0.3-0.7,0.7v5.3c0,0.4,0.3,0.7,0.7,0.7h4.2
		v13.5c0,0.4,0.3,0.7,0.7,0.7h5.5c0.4,0,0.7-0.3,0.7-0.7V30.9h5c0.4,0,0.7-0.3,0.7-0.7l0-5.3c0-0.2-0.1-0.3-0.2-0.5
		c-0.1-0.1-0.3-0.2-0.5-0.2h-5v-3.1c0-1.5,0.4-2.3,2.3-2.3l2.8,0c0.4,0,0.7-0.3,0.7-0.7v-5C81.8,12.8,81.5,12.5,81.2,12.5z"/>
</g>
<g id="XMLID_29_">
	<path id="XMLID_13_" d="M55.3,77c-5.5,0-10-4.8-10-10.8s4.5-10.8,10-10.8s10,4.8,10,10.8S60.8,77,55.3,77z M55.3,57.5
		c-4.4,0-8,3.9-8,8.8s3.6,8.8,8,8.8s8-3.9,8-8.8S59.7,57.5,55.3,57.5z"/>
	<ellipse id="XMLID_30_" cx="55.3" cy="66.2" rx="4.8" ry="5.3"/>
</g>
<g id="XMLID_32_">
	<path id="XMLID_10_" d="M93.2,77c-5.5,0-10-4.8-10-10.8s4.5-10.8,10-10.8s10,4.8,10,10.8S98.7,77,93.2,77z M93.2,57.5
		c-4.4,0-8,3.9-8,8.8s3.6,8.8,8,8.8s8-3.9,8-8.8S97.6,57.5,93.2,57.5z"/>
	<ellipse id="XMLID_33_" cx="93.2" cy="66.2" rx="4.8" ry="5.3"/>
</g>
<path id="XMLID_9_" d="M116.6,90.2l-1-1.7c0.1-0.1,9.1-5.1,9.5-12.6c0.3-4.8-2.9-9.7-9.6-14.4l1.2-1.6c7.2,5.2,10.8,10.7,10.4,16.2
	C126.6,84.6,117,90,116.6,90.2z"/>
<path id="XMLID_8_" d="M29.9,90.5c-7.2-5.2-10.8-10.7-10.4-16.2c0.5-8.6,10.1-14,10.5-14.2l1,1.7c-0.1,0.1-9.1,5.1-9.5,12.6
	c-0.3,4.8,2.9,9.7,9.6,14.4L29.9,90.5z"/>
<path id="XMLID_7_" d="M62.6,92.9c-3,0-5.7-2.1-6.5-5.1l1.9-0.5c0.5,2.1,2.5,3.7,4.7,3.6c2.1-0.1,3.9-1.5,4.4-3.6l1.9,0.5
	c-0.7,2.9-3.3,5-6.3,5.1C62.7,92.9,62.7,92.9,62.6,92.9z"/>
</svg>
