<?xml version="1.0" standalone="no"?>
<!DOCTYPE svg PUBLIC "-//W3C//DTD SVG 20010904//EN"
 "http://www.w3.org/TR/2001/REC-SVG-20010904/DTD/svg10.dtd">
<svg version="1.0" xmlns="http://www.w3.org/2000/svg"
 width="574.000000pt" height="558.000000pt" viewBox="0 0 574.000000 558.000000"
 preserveAspectRatio="xMidYMid meet">

<g transform="translate(0.000000,558.000000) scale(0.100000,-0.100000)"
fill="#000000" stroke="none">
<path d="M2630 5574 c-14 -2 -65 -9 -115 -15 -422 -52 -882 -233 -1257 -496
-197 -138 -442 -364 -596 -551 -359 -435 -581 -940 -647 -1473 -17 -143 -20
-445 -4 -587 60 -560 322 -1110 733 -1539 370 -387 856 -674 1386 -817 445
-120 958 -126 1406 -16 537 131 1013 398 1405 789 321 320 534 662 670 1073
143 433 167 907 69 1362 -89 410 -292 828 -570 1176 -108 135 -325 352 -460
460 -431 345 -946 564 -1469 625 -113 13 -479 19 -551 9z m646 -192 c271 -48
486 -118 739 -242 550 -270 1002 -717 1280 -1265 559 -1104 248 -2374 -770
-3141 -317 -240 -703 -417 -1090 -503 -207 -46 -310 -56 -570 -55 -267 0 -358
10 -583 60 -1011 225 -1845 1022 -2056 1966 -76 341 -76 714 0 1058 239 1075
1184 1961 2266 2124 159 24 158 24 418 21 194 -2 270 -7 366 -23z"/>
<path d="M3018 5020 c-114 -35 -172 -142 -134 -249 14 -42 14 -46 -5 -73 -62
-87 -154 -333 -189 -508 -20 -97 -24 -230 -9 -305 4 -20 -3 -20 -491 -26 -272
-4 -533 -12 -580 -18 -233 -31 -346 -75 -444 -173 -99 -100 -145 -216 -165
-423 -10 -100 -10 -100 -48 -130 -72 -56 -228 -221 -261 -276 -50 -85 -74
-164 -80 -258 -10 -174 52 -319 205 -482 35 -37 95 -93 132 -124 l69 -55 7
-78 c9 -97 31 -222 52 -287 57 -183 203 -315 394 -359 133 -31 276 -34 1464
-31 1033 3 1214 6 1297 19 155 25 248 68 332 152 104 103 126 178 128 426 l1
176 62 46 c95 70 225 212 267 292 100 191 96 380 -12 558 -66 108 -259 305
-332 338 -26 12 -28 18 -28 68 0 90 -26 234 -52 292 -49 106 -164 207 -284
248 -170 60 -319 72 -959 79 l-540 6 -20 40 c-16 33 -20 59 -19 145 1 113 12
179 51 305 28 88 91 222 128 271 23 30 26 31 67 22 159 -37 284 148 197 289
-38 61 -139 103 -201 83z m962 -1299 c284 -30 398 -78 483 -203 44 -65 54
-115 67 -323 17 -277 42 -1236 38 -1442 -4 -222 -8 -236 -80 -318 -52 -59
-106 -90 -204 -117 -78 -21 -90 -21 -1279 -29 -663 -4 -1255 -3 -1323 2 -201
14 -305 51 -391 137 -110 110 -140 249 -162 747 -6 143 -12 438 -12 655 -2
341 0 408 16 490 40 213 135 322 320 369 70 18 230 37 387 45 171 9 2043 -3
2140 -13z m820 -761 c140 -139 200 -255 207 -400 6 -103 -16 -179 -81 -279
-57 -88 -215 -246 -230 -230 -3 3 -36 937 -36 1012 0 17 3 16 33 -5 17 -12 66
-56 107 -98z m-3800 -534 c6 -208 8 -381 5 -384 -2 -3 -41 31 -86 74 -185 181
-259 362 -215 533 27 107 71 177 181 286 l100 100 2 -115 c1 -63 7 -286 13
-494z"/>
<path d="M2036 3359 c-219 -36 -379 -269 -345 -503 23 -165 110 -286 256 -353
50 -24 71 -28 153 -28 91 0 100 2 172 38 378 186 298 780 -113 847 -35 5 -66
9 -69 9 -3 -1 -27 -5 -54 -10z m199 -109 c66 -32 125 -93 161 -166 27 -54 29
-68 29 -169 0 -101 -2 -114 -28 -163 -16 -30 -46 -74 -69 -98 -138 -150 -374
-126 -495 50 -135 196 -39 499 178 565 59 18 168 8 224 -19z"/>
<path d="M2050 3128 c-111 -32 -173 -159 -139 -282 14 -49 80 -122 126 -137
92 -30 192 13 237 102 85 171 -53 367 -224 317z"/>
<path d="M3618 3360 c-73 -13 -153 -54 -211 -109 -100 -94 -142 -206 -135
-360 3 -86 7 -105 40 -174 47 -97 115 -167 206 -210 61 -29 76 -32 162 -32 91
0 100 2 171 37 255 126 326 459 149 694 -85 113 -244 177 -382 154z m197 -110
c223 -109 267 -433 83 -606 -112 -104 -249 -119 -379 -41 -110 66 -176 201
-167 341 10 151 109 282 248 327 49 16 162 5 215 -21z"/>
<path d="M3630 3128 c-82 -23 -150 -116 -150 -204 0 -175 178 -283 312 -188
105 74 120 243 30 337 -50 53 -125 75 -192 55z"/>
<path d="M2173 2029 c-38 -11 -40 -17 -13 -68 28 -55 77 -101 139 -129 45 -21
64 -24 126 -20 111 7 191 62 236 163 20 44 21 43 -42 58 -23 6 -28 3 -33 -18
-10 -39 -63 -92 -111 -111 -92 -35 -198 7 -240 94 -11 23 -22 42 -25 41 -3 0
-20 -5 -37 -10z"/>
</g>
</svg>
